<svg xmlns="http://www.w3.org/2000/svg" width="250" height="197" viewBox="0 0 250 197">
  <g id="angle-double-right" transform="translate(0 0)">
    <g id="angle-double-right-2" data-name="angle-double-right" transform="translate(-39.634 -102.184) rotate(180)">
      <path id="Path_1" data-name="Path 1" d="M150.984-17.452a5.663,5.663,0,0,0-2.586-4.541l-12.938-9.868a9.549,9.549,0,0,0-5.954-1.972,9.549,9.549,0,0,0-5.954,1.972L2.952,60.125a5.28,5.28,0,0,0,0,9.082l120.6,91.987a9.972,9.972,0,0,0,11.907,0l12.938-9.868a5.28,5.28,0,0,0,0-9.082L46.689,64.666,148.4-12.911A5.663,5.663,0,0,0,150.984-17.452Zm99.382,0a5.663,5.663,0,0,0-2.586-4.541l-12.938-9.868a9.55,9.55,0,0,0-5.954-1.972,9.549,9.549,0,0,0-5.954,1.972l-120.6,91.987a5.28,5.28,0,0,0,0,9.082l120.6,91.987a9.972,9.972,0,0,0,11.907,0l12.938-9.868a5.28,5.28,0,0,0,0-9.082L146.071,64.666,247.78-12.911a5.663,5.663,0,0,0,2.586-4.541Z" transform="translate(-290 -265.35)" fill="#080809"/>
    </g>
  </g>
</svg>
