<svg id="check-all" xmlns="http://www.w3.org/2000/svg" width="229.281" height="175.198" viewBox="0 0 229.281 175.198">
  <path id="Path_4" data-name="Path 4" d="M134.3,17.033c5.455-7.956,14.392-8.082,19.958-.284s5.654,20.566.2,28.518L79.342,179.4c-2.609,4.012-6.247,6.336-10.08,6.437s-7.529-2.028-10.24-5.9L9.254,108.81C5.432,103.8,3.842,96.2,5.113,89.012s5.2-12.8,10.226-14.611,10.35.456,13.857,5.916l39.4,56.258L133.911,17.631a6.5,6.5,0,0,1,.376-.585ZM116.987,155.2,134.3,179.93c2.71,3.864,6.4,5.989,10.231,5.887s7.463-2.42,10.071-6.425L229.7,45.252c3.712-5.172,5.14-12.836,3.72-19.962S227.963,12.727,222.9,11.125s-10.332.891-13.725,6.494L143.828,136.575l-9.123-13.058-17.744,31.7Z" transform="translate(-4.682 -10.648)" fill="#080809" fill-rule="evenodd"/>
</svg>
