<svg xmlns="http://www.w3.org/2000/svg" xmlns:xlink="http://www.w3.org/1999/xlink" width="161.826" height="153.161" viewBox="0 0 161.826 153.161">
  <defs>
    <linearGradient id="linear-gradient" x1="0.5" x2="0.5" y2="1" gradientUnits="objectBoundingBox">
      <stop offset="0" stop-color="#a2a2a2" stop-opacity="0.902"/>
      <stop offset="1" stop-color="#635d5d"/>
    </linearGradient>
  </defs>
  <path id="earth" d="M140.377,24.689c-31.6-29.907-82.83-29.907-114.429,0s-31.6,78.395,0,108.3,82.83,29.907,114.428,0,31.6-78.395,0-108.3ZM13.809,78.839a62.225,62.225,0,0,1,2.42-17.2c2.651,5.4,6.5,10.07,9.119,15.608,3.385,7.123,12.473,5.149,16.486,11.392,3.56,5.543-.241,12.549,2.425,18.35,1.937,4.211,6.5,5.13,9.653,8.207,3.216,3.1,3.149,7.357,3.642,11.407a99.363,99.363,0,0,0,2.692,14.11.145.145,0,0,0,.031.107C33.244,131.833,13.809,107.444,13.809,78.839Zm69.354,65.64a73.585,73.585,0,0,1-11.55-.913,22.342,22.342,0,0,1,.145-2.394,28.749,28.749,0,0,1,7.634-14.82c3.832-4.011,9.083-6.729,12.319-11.28A19.366,19.366,0,0,0,94.527,99.45C92.6,91.778,81.586,89.22,75.647,85.058c-3.411-2.392-6.452-6.092-10.932-6.394-2.065-.136-3.8.282-5.846-.214-1.88-.462-3.35-1.42-5.353-1.167-3.74.467-6.1,4.245-10.115,3.734-3.812-.481-7.737-4.707-8.6-8.139-1.115-4.415,2.579-5.849,6.535-6.243a11.821,11.821,0,0,1,5.091.233c2.086.729,3.072,2.665,4.947,3.647,3.514,1.823,4.228-1.089,3.689-4.045-.807-4.425-1.747-6.224,2.425-9.272,2.892-2.1,5.358-3.617,4.9-7.386-.272-2.217-1.557-3.219-.36-5.421.9-1.677,3.4-3.194,5.019-4.2,4.187-2.587,17.934-2.392,12.319-9.627-1.649-2.125-4.7-5.917-7.588-6.438-3.612-.647-5.214,3.17-7.732,4.852-2.6,1.741-7.665,3.715-10.269,1.026-3.5-3.622,2.322-4.809,3.612-7.337.6-1.182,0-2.815-1-4.357q1.952-.778,3.971-1.444A5.831,5.831,0,0,0,63.241,17.9c2.415.151,4.7-1.089,6.807.472,2.343,1.712,4.028,3.87,7.136,4.405,3.005.515,6.185-1.143,6.93-4.055a11.613,11.613,0,0,0-.432-5.47,71.72,71.72,0,0,1,37.929,11.013,3.505,3.505,0,0,0-2.651.238c-2.194.963-5.3,3.418-5.553,5.854-.293,2.762,4.012,3.151,6.057,3.151,3.072,0,6.18-1.3,5.189-4.658a9.135,9.135,0,0,0-1.957-3.885,69.406,69.406,0,0,1,6.5,4.833c-.031.029-.067.058-.1.092-2.081,2.052-4.5,3.676-5.918,6.17a5.662,5.662,0,0,1-4.166,3.044,8.281,8.281,0,0,0-3.339,1.055c-2.615,1.95-1.125,6.632,1.351,8.037A8.849,8.849,0,0,0,127.169,46.6c1.844-1.984,2.933-5.426,6.252-5.421a5.731,5.731,0,0,1,3.91,1.507c1.372,1.347,1.1,2.606,1.392,4.288.519,2.99,3.3,1.366,4.993-.141a64.3,64.3,0,0,1,3.339,6.418c-1.865,2.538-3.344,5.31-7.829,2.348-2.682-1.775-4.336-4.347-7.706-5.149-2.944-.686-5.959.029-8.867.5-3.3.545-7.223.783-9.73,3.151-2.425,2.285-3.7,5.339-6.283,7.634-4.988,4.444-7.095,9.3-3.863,15.579,3.108,6.039,9.607,9.321,16.614,8.888,6.889-.433,14.045-4.216,13.845,5.256a22.825,22.825,0,0,0,1.757,8.791c1.007,2.874.94,5.655,1.171,8.621a51.353,51.353,0,0,0,1.711,10.279c-13.125,15.988-33.32,25.338-54.712,25.332Z" transform="translate(-2.25 -2.259)" fill="url(#linear-gradient)"/>
</svg>
