<svg id="Icon_awesome-car" data-name="Icon awesome-car" xmlns="http://www.w3.org/2000/svg" width="250" height="197" viewBox="0 0 250 197">
  <path id="Icon_awesome-car-2" data-name="Icon awesome-car" d="M244.135,61.958H214.9l-8.125-21.342C198.426,18.675,178.5,4.5,156,4.5H93.993C71.5,4.5,51.571,18.675,43.216,40.617L35.091,61.958H5.863A6.091,6.091,0,0,0,.179,69.607L3.109,81.92a5.918,5.918,0,0,0,5.684,4.663h9.8A33.309,33.309,0,0,0,7.811,111.208v24.625a33.518,33.518,0,0,0,7.813,21.511v27.739c0,9.065,7,16.417,15.625,16.417H46.874c8.628,0,15.625-7.352,15.625-16.417V168.667h125v16.417c0,9.065,7,16.417,15.625,16.417h15.625c8.628,0,15.625-7.352,15.625-16.417V157.344a33.5,33.5,0,0,0,7.813-21.511V111.208A33.323,33.323,0,0,0,231.41,86.583h9.8a5.918,5.918,0,0,0,5.684-4.663l2.93-12.312a6.1,6.1,0,0,0-5.688-7.649ZM72.23,52.811A23.478,23.478,0,0,1,93.993,37.333H156a23.478,23.478,0,0,1,21.763,15.478L187.5,78.375H62.5L72.23,52.811Zm-25.356,82.92c-9.375,0-15.625-6.546-15.625-16.365S37.5,103,46.874,103s23.438,14.729,23.438,24.548S56.249,135.731,46.874,135.731Zm156.25,0c-9.375,0-23.438,1.637-23.438-8.183S193.749,103,203.124,103s15.625,6.546,15.625,16.365-6.25,16.365-15.625,16.365Z" transform="translate(0 -4.5)" fill="#080809"/>
</svg>
