<svg id="journal-check" xmlns="http://www.w3.org/2000/svg" width="245.499" height="197" viewBox="0 0 245.499 197">
  <path id="Path_2" data-name="Path 2" d="M58.9,2.25h94.422V16.321H58.9c-10.43,0-18.884,6.3-18.884,14.071H21.135C21.135,14.85,38.044,2.25,58.9,2.25Zm188.845,98.5v70.357c0,15.543-16.91,28.143-37.769,28.143H58.9c-20.859,0-37.769-12.6-37.769-28.143H40.019c0,7.771,8.455,14.071,18.884,14.071H209.979c10.43,0,18.884-6.3,18.884-14.071V100.75ZM21.135,58.536V51.5c0-3.886,4.227-7.036,9.442-7.036s9.442,3.15,9.442,7.036v7.036h9.442c5.215,0,9.442,3.15,9.442,7.036s-4.227,7.036-9.442,7.036H11.692c-5.215,0-9.442-3.15-9.442-7.036s4.227-7.036,9.442-7.036Zm0,42.214V93.714c0-3.886,4.227-7.036,9.442-7.036s9.442,3.15,9.442,7.036v7.036h9.442c5.215,0,9.442,3.15,9.442,7.036s-4.227,7.036-9.442,7.036H11.692c-5.215,0-9.442-3.15-9.442-7.036s4.227-7.036,9.442-7.036Zm0,42.214v-7.036c0-3.886,4.227-7.036,9.442-7.036s9.442,3.15,9.442,7.036v7.036h9.442c5.215,0,9.442,3.15,9.442,7.036s-4.227,7.036-9.442,7.036H11.692c-5.215,0-9.442-3.15-9.442-7.036s4.227-7.036,9.442-7.036Z" transform="translate(-2.25 -2.25)" fill="#080809"/>
</svg>
