<svg id="local-taxi" xmlns="http://www.w3.org/2000/svg" width="238.955" height="220.65" viewBox="0 0 238.955 220.65">
  <path id="local-taxi-2" data-name="local-taxi" d="M211.574,36.775l27.38,73.55v98.256q0,4.6-4.042,8.33a13.016,13.016,0,0,1-9.027,3.739H212.192a12.983,12.983,0,0,1-9.021-3.733q-4.042-3.733-4.042-8.336V195.937H39.826v12.644q0,4.6-4.042,8.33a13.016,13.016,0,0,1-9.027,3.739H13.069a12.983,12.983,0,0,1-9.021-3.733Q.007,213.184,0,208.581V110.325l27.38-73.55q4.978-12.068,19.289-12.068H79.652L92.075,13.053,79.652,0H159.3s-12.791,6.876-12.791,13.053S159.3,24.707,159.3,24.707h32.982Q206.6,24.707,211.574,36.775ZM46.357,159.168A20.972,20.972,0,0,0,60.668,154c3.938-3.449,18.979,25.061,18.984,19.892-3.13-8.109-15.036-42.392-18.984-46.033a20.354,20.354,0,0,0-14.311-5.461,19.267,19.267,0,0,0-14,5.461,17.742,17.742,0,0,0-5.6,13.214A16.894,16.894,0,0,0,32.358,154,19.83,19.83,0,0,0,46.357,159.168Zm146.234,0a19.83,19.83,0,0,0,14-5.173,16.894,16.894,0,0,0,5.6-12.926,17.742,17.742,0,0,0-5.6-13.214,19.267,19.267,0,0,0-14-5.461,20.354,20.354,0,0,0-14.311,5.461c-3.947,3.641-18.981,40.864-18.977,46.033S174.342,150.546,178.28,154A20.972,20.972,0,0,0,192.591,159.168ZM32.358,98.256H212.2L192.285,43.094H46.669Z" fill="#080809"/>
</svg>
