<svg id="railway" xmlns="http://www.w3.org/2000/svg" width="250" height="197" viewBox="0 0 250 197">
  <path id="railway-2" data-name="railway" d="M0,143.434V40.089A26.848,26.848,0,0,1,9.167,19.329q9.167-8.3,27.862-12.224A283.969,283.969,0,0,1,75.888,1.8Q96.052.417,125,.417T174.121,1.8A283.968,283.968,0,0,1,212.98,7.1q18.695,3.92,27.862,12.224A26.821,26.821,0,0,1,250,40.089V143.434q0,14.3-15.765,24.221t-38.489,9.921l23.463,14.765v5.077H31.522V192.34l23.463-14.765q-22.724,0-38.859-9.921T0,143.434ZM125,158.2q12.827,0,21.994-5.769t9.167-14.073q0-8.3-9.167-14.073T125,118.515q-12.827,0-21.994,5.769t-9.158,14.073q.009,8.3,9.167,14.073T125,158.2ZM219.209,89V40.089H31.522v48.9H219.2Z" transform="translate(0 -0.417)" fill="#080809"/>
</svg>
